<svg xmlns="http://www.w3.org/2000/svg" width="1536" height="1024" viewBox="0 0 1536 1024" role="img" aria-label="InstaPower Windows settings preview">
<defs><linearGradient id="bg" x1="0" y1="0" x2="1" y2="1"><stop stop-color="#07102a"/><stop offset=".5" stop-color="#121e47"/><stop offset="1" stop-color="#2d1251"/></linearGradient><linearGradient id="a" x1="0" x2="1"><stop stop-color="#6c35ff"/><stop offset=".6" stop-color="#db2fe0"/><stop offset="1" stop-color="#ff704f"/></linearGradient></defs>
<rect width="1536" height="1024" fill="url(#bg)"/><text x="768" y="92" text-anchor="middle" fill="#fff" font-family="Segoe UI,Arial" font-size="56" font-weight="700">InstaPower Settings</text><text x="768" y="136" text-anchor="middle" fill="#aebcf0" font-family="Segoe UI,Arial" font-size="22">A focused Windows experience, tuned to your workflow.</text>
<g transform="translate(150 205)"><rect width="1236" height="650" rx="24" fill="#080e1c" stroke="#435a96" stroke-width="2"/><rect width="250" height="650" rx="24" fill="#0d1629"/><rect x="24" y="28" width="202" height="56" rx="14" fill="url(#a)"/><text x="47" y="64" fill="#fff" font-family="Segoe UI,Arial" font-size="20" font-weight="700">⚡ InstaPower</text>
<g fill="#b7c4df" font-family="Segoe UI,Arial" font-size="18"><text x="42" y="130">⚙  General</text><text x="42" y="180">♧  Notifications</text><text x="42" y="230">↻  Updates</text><text x="42" y="280">⇩  Downloads</text><text x="42" y="330">⌨  Shortcuts</text><text x="42" y="380">◈  Security</text><text x="42" y="430">ⓘ  About</text></g>
<g transform="translate(295 38)"><text x="0" y="28" fill="#fff" font-family="Segoe UI,Arial" font-size="28" font-weight="700">General</text><text x="0" y="58" fill="#8d9abb" font-family="Segoe UI,Arial" font-size="15">Configure startup, tray behavior, notifications and updates.</text>
<rect y="82" width="875" height="160" rx="16" fill="#111b30"/><text x="24" y="116" fill="#fff" font-family="Segoe UI,Arial" font-size="18" font-weight="600">Startup &amp; Window</text>
<g fill="#b8c3d8" font-family="Segoe UI,Arial" font-size="15"><text x="24" y="151">Launch at Windows startup</text><text x="24" y="191">Minimize to tray on close</text><text x="24" y="231">Remember window position &amp; size</text></g>
<g fill="#3e83ff"><rect x="790" y="136" width="48" height="24" rx="12"/><rect x="790" y="176" width="48" height="24" rx="12"/><rect x="790" y="216" width="48" height="24" rx="12"/></g><g fill="#fff"><circle cx="823" cy="148" r="8"/><circle cx="823" cy="188" r="8"/><circle cx="823" cy="228" r="8"/></g>
<rect y="264" width="430" height="170" rx="16" fill="#111b30"/><text x="24" y="298" fill="#fff" font-family="Segoe UI,Arial" font-size="18" font-weight="600">Notifications</text><text x="24" y="333" fill="#b8c3d8" font-family="Segoe UI,Arial" font-size="15">Desktop notifications</text><text x="24" y="373" fill="#b8c3d8" font-family="Segoe UI,Arial" font-size="15">Notify on completed downloads</text><text x="24" y="413" fill="#b8c3d8" font-family="Segoe UI,Arial" font-size="15">Notify when updates are available</text>
<rect x="465" y="264" width="410" height="170" rx="16" fill="#111b30"/><text x="489" y="298" fill="#fff" font-family="Segoe UI,Arial" font-size="18" font-weight="600">Keyboard shortcuts</text><text x="489" y="337" fill="#b8c3d8" font-family="Segoe UI,Arial" font-size="15">Ctrl + Shift + S</text><text x="720" y="337" fill="#8f9dbb" font-family="Segoe UI,Arial" font-size="15">Settings</text><text x="489" y="373" fill="#b8c3d8" font-family="Segoe UI,Arial" font-size="15">Ctrl + Shift + R</text><text x="720" y="373" fill="#8f9dbb" font-family="Segoe UI,Arial" font-size="15">Reload</text><text x="489" y="409" fill="#b8c3d8" font-family="Segoe UI,Arial" font-size="15">Ctrl + Shift + M</text><text x="720" y="409" fill="#8f9dbb" font-family="Segoe UI,Arial" font-size="15">Minimize</text>
<rect y="456" width="875" height="115" rx="16" fill="#111b30"/><text x="24" y="493" fill="#fff" font-family="Segoe UI,Arial" font-size="18" font-weight="600">Updates</text><text x="24" y="528" fill="#b8c3d8" font-family="Segoe UI,Arial" font-size="15">Automatic update checks every six hours.</text><rect x="724" y="504" width="126" height="42" rx="10" fill="#2b3d67"/><text x="787" y="530" text-anchor="middle" fill="#fff" font-family="Segoe UI,Arial" font-size="14">Check now</text></g></g></svg>